<?xml version='1.0' encoding='utf-8'?>
<svg xmlns="http://www.w3.org/2000/svg" xmlns:xlink="http://www.w3.org/1999/xlink" width="760" height="85" viewBox="0 0 760 85" role="img" aria-labelledby="title desc"><title id="title">29. Generalized Advantage Estimation</title><desc id="desc">\hat A_t^{GAE(\gamma,\lambda)}=\sum_{l=0}^{\infty}(\gamma\lambda)^{l}\delta_{t+l}.</desc><rect width="760" height="85" rx="10" fill="#F5F1E8" /><rect x="0" y="12" width="3" height="61" rx="1.5" fill="#AF824A" /><g fill="#292332" transform="translate(53.9551,70.3965) scale(1.90000)"><defs>
<path id="g9-88" d="M12.612702 13.947696L13.818182 10.759651H13.569116C13.180573 11.795766 12.124533 12.473225 10.978829 12.772105C10.769614 12.821918 9.793275 13.080946 7.880448 13.080946H1.872976L6.94396 7.13325C7.013699 7.053549 7.033624 7.023661 7.033624 6.973848C7.033624 6.953923 7.033624 6.924035 6.963885 6.824408L2.321295 .478207H7.780822C9.115816 .478207 10.022416 .617684 10.11208 .637609C10.650062 .71731 11.516812 .886675 12.303861 1.384807C12.552927 1.544209 13.230386 1.992528 13.569116 2.799502H13.818182L12.612702 0H.836862C.607721 0 .597758 .009963 .56787 .069738C.557908 .099626 .557908 .288917 .557908 .398506L5.828144 7.611457L.667497 13.65878C.56787 13.778331 .56787 13.828144 .56787 13.838107C.56787 13.947696 .657534 13.947696 .836862 13.947696H12.612702Z" />
<path id="g2-49" d="M4.030884-1.910834C3.66127-2.343213 3.549689-2.461768 3.284682-2.650062C2.859278-2.956912 2.412951-3.075467 2.02939-3.075467C1.164633-3.075467 .536986-2.336239 .536986-1.499377C.536986-.683437 1.136737 .069738 2.008468 .069738C2.977833 .069738 3.654296-.72528 3.905355-1.094894C4.274969-.662516 4.38655-.54396 4.651557-.355666C5.076961-.048817 5.523288 .069738 5.906849 .069738C6.771606 .069738 7.399253-.669489 7.399253-1.506351C7.399253-2.322291 6.799502-3.075467 5.927771-3.075467C4.958406-3.075467 4.281943-2.280448 4.030884-1.910834ZM4.254047-1.652802C4.533001-2.106102 5.139726-2.810461 5.990535-2.810461C6.708842-2.810461 7.203985-2.175841 7.203985-1.506351S6.660025-.313823 6.018431-.313823C5.369863-.313823 4.923537-.843836 4.254047-1.652802ZM3.682192-1.352927C3.403238-.899626 2.796513-.195268 1.945704-.195268C1.227397-.195268 .732254-.829888 .732254-1.499377S1.276214-2.691905 1.917808-2.691905C2.566376-2.691905 3.012702-2.161893 3.682192-1.352927Z" />
<path id="g8-40" d="M2.475716-5.230386C1.150685-4.29589 .801993-2.817435 .801993-1.750436C.801993-.767123 1.094894 .760149 2.475716 1.736488C2.531507 1.736488 2.615193 1.736488 2.615193 1.652802C2.615193 1.610959 2.594271 1.597011 2.545455 1.548194C1.617933 .711333 1.276214-.474222 1.276214-1.743462C1.276214-3.626401 1.994521-4.546949 2.566376-5.063014C2.594271-5.090909 2.615193-5.111831 2.615193-5.1467C2.615193-5.230386 2.531507-5.230386 2.475716-5.230386Z" />
<path id="g8-41" d="M.627646-5.230386C.578829-5.230386 .495143-5.230386 .495143-5.1467C.495143-5.111831 .516065-5.090909 .557908-5.042092C1.157659-4.491158 1.827148-3.549689 1.827148-1.750436C1.827148-.292902 1.373848 .808966 .620672 1.492403C.502117 1.610959 .495143 1.617933 .495143 1.652802S.516065 1.736488 .585803 1.736488C.669489 1.736488 1.332005 1.276214 1.792279 .404483C2.099128-.174346 2.30137-.927522 2.30137-1.743462C2.30137-2.726775 2.008468-4.254047 .627646-5.230386Z" />
<path id="g8-43" d="M3.228892-1.57609H5.362889C5.453549-1.57609 5.620922-1.57609 5.620922-1.743462C5.620922-1.917808 5.460523-1.917808 5.362889-1.917808H3.228892V-4.05878C3.228892-4.14944 3.228892-4.316812 3.061519-4.316812C2.887173-4.316812 2.887173-4.156413 2.887173-4.05878V-1.917808H.746202C.655542-1.917808 .488169-1.917808 .488169-1.750436C.488169-1.57609 .648568-1.57609 .746202-1.57609H2.887173V.564882C2.887173 .655542 2.887173 .822914 3.054545 .822914C3.228892 .822914 3.228892 .662516 3.228892 .564882V-1.57609Z" />
<path id="g8-48" d="M3.598506-2.224658C3.598506-2.991781 3.507846-3.542715 3.187049-4.030884C2.970859-4.351681 2.538481-4.630635 1.980573-4.630635C.36264-4.630635 .36264-2.726775 .36264-2.224658S.36264 .139477 1.980573 .139477S3.598506-1.72254 3.598506-2.224658ZM1.980573-.055791C1.659776-.055791 1.234371-.244085 1.094894-.81594C.99726-1.227397 .99726-1.799253 .99726-2.315318C.99726-2.824408 .99726-3.354421 1.101868-3.737983C1.248319-4.288917 1.694645-4.435367 1.980573-4.435367C2.357161-4.435367 2.719801-4.20523 2.84533-3.800747C2.956912-3.424159 2.963885-2.922042 2.963885-2.315318C2.963885-1.799253 2.963885-1.283188 2.873225-.843836C2.733748-.209215 2.259527-.055791 1.980573-.055791Z" />
<path id="g8-61" d="M5.355915-2.343213C5.460523-2.343213 5.620922-2.343213 5.620922-2.517559C5.620922-2.684932 5.453549-2.684932 5.362889-2.684932H.746202C.655542-2.684932 .488169-2.684932 .488169-2.517559C.488169-2.343213 .648568-2.343213 .753176-2.343213H5.355915ZM5.362889-.808966C5.453549-.808966 5.620922-.808966 5.620922-.976339C5.620922-1.150685 5.460523-1.150685 5.355915-1.150685H.753176C.648568-1.150685 .488169-1.150685 .488169-.976339C.488169-.808966 .655542-.808966 .746202-.808966H5.362889Z" />
<path id="g5-13" d="M3.11731-.976339C3.082441-1.380822 2.84533-3.075467 1.708593-3.075467C1.297136-3.075467 .941469-2.852304 .746202-2.670984C.320797-2.287422 .237111-1.841096 .237111-1.820174C.237111-1.736488 .327771-1.736488 .348692-1.736488C.439352-1.736488 .446326-1.750436 .481196-1.855044C.627646-2.266501 1.143711-2.517559 1.610959-2.517559C2.733748-2.517559 2.880199-1.39477 2.880199-.683437C2.880199-.334745 2.859278-.258032 2.831382-.18132C2.670984 .341719 2.461768 1.115816 2.461768 1.325031C2.461768 1.401743 2.489664 1.492403 2.580324 1.492403C2.629141 1.492403 2.705853 1.492403 2.817435 1.129763C2.901121 .857783 3.033624 .341719 3.089415-.160399C3.11731-.404483 3.507846-1.345953 3.654296-1.680697C3.75193-1.896887 3.898381-2.224658 4.226152-2.831382C4.247073-2.866252 4.261021-2.894147 4.261021-2.922042C4.261021-3.005729 4.170361-3.005729 4.14944-3.005729S4.065753-3.005729 4.044832-2.970859C3.961146-2.824408 3.431133-1.827148 3.11731-.976339Z" />
<path id="g5-21" d="M2.817435-1.994521C3.166127-1.199502 3.563636-.188294 3.640349-.097634C3.772852 .069738 3.898381 .069738 4.009963 .069738H4.14944C4.281943 .069738 4.351681 .069738 4.351681-.013948C4.351681-.048817 4.33076-.069738 4.316812-.083686C4.233126-.160399 4.163387-.320797 4.135492-.383562L2.433873-4.400498C2.385056-4.526027 2.245579-4.839851 1.506351-4.839851C1.422665-4.839851 1.325031-4.839851 1.325031-4.742217C1.325031-4.658531 1.39477-4.651557 1.429639-4.644583C1.57609-4.623661 1.708593-4.60274 1.882939-4.20523L2.712827-2.252553L.655542-.397509C.571856-.327771 .516065-.27198 .516065-.153425C.516065 .013948 .655542 .083686 .753176 .083686C.885679 .083686 .969365-.006974 .990286-.027895L2.817435-1.994521Z" />
<path id="g5-59" d="M1.471482-.111582C1.471482 .27198 1.401743 .718306 .927522 1.164633C.899626 1.192528 .878705 1.21345 .878705 1.248319C.878705 1.297136 .934496 1.345953 .976339 1.345953C1.073973 1.345953 1.66675 .788045 1.66675-.041843C1.66675-.474222 1.499377-.801993 1.17858-.801993C.948443-.801993 .781071-.620672 .781071-.404483C.781071-.18132 .941469 0 1.185554 0C1.352927 0 1.464508-.111582 1.471482-.111582Z" />
<path id="g5-65" d="M1.436613-.836862C1.192528-.460274 .969365-.278954 .557908-.251059C.488169-.244085 .397509-.244085 .397509-.104608C.397509-.027895 .460274 0 .495143 0C.676463 0 .9066-.027895 1.094894-.027895C1.318057-.027895 1.603985 0 1.8132 0C1.84807 0 1.952677 0 1.952677-.153425C1.952677-.244085 1.862017-.251059 1.834122-.251059C1.778331-.258032 1.527273-.27198 1.527273-.460274C1.527273-.54396 1.597011-.662516 1.63188-.72528L2.189788-1.590037H4.184309L4.351681-.432379C4.323786-.36264 4.281943-.251059 3.870486-.251059C3.7868-.251059 3.689166-.251059 3.689166-.097634C3.689166-.069738 3.710087 0 3.800747 0C4.002989 0 4.498132-.027895 4.700374-.027895C4.825903-.027895 4.986301-.020922 5.111831-.020922C5.23736-.013948 5.383811 0 5.50934 0C5.6 0 5.648817-.055791 5.648817-.146451C5.648817-.251059 5.565131-.251059 5.453549-.251059C5.049066-.251059 5.035118-.306849 5.014197-.474222L4.400498-4.777086C4.379577-4.923537 4.365629-4.972354 4.233126-4.972354S4.05878-4.909589 3.996015-4.811955L1.436613-.836862ZM2.357161-1.841096L3.821669-4.121544L4.14944-1.841096H2.357161Z" />
<path id="g5-69" d="M5.523288-1.610959C5.565131-1.701619 5.565131-1.729514 5.565131-1.736488C5.565131-1.778331 5.537235-1.834122 5.446575-1.834122C5.432628-1.834122 5.397758-1.834122 5.369863-1.806227C5.355915-1.792279 5.348941-1.785305 5.265255-1.603985C4.811955-.599751 4.456289-.251059 3.319552-.251059H2.133998C1.917808-.251059 1.910834-.258032 1.910834-.320797C1.910834-.327771 1.910834-.36264 1.93873-.467248L2.405978-2.336239H3.187049C3.737983-2.336239 3.821669-2.245579 3.821669-2.015442C3.821669-1.93873 3.800747-1.820174 3.772852-1.701619C3.75193-1.638854 3.75193-1.63188 3.75193-1.617933S3.758904-1.520299 3.870486-1.520299C3.96812-1.520299 3.975093-1.555168 4.002989-1.673724L4.38655-3.200996C4.407472-3.284682 4.407472-3.29863 4.407472-3.305604C4.407472-3.375342 4.351681-3.403238 4.288917-3.403238C4.198257-3.403238 4.191283-3.368369 4.14944-3.221918C4.002989-2.677958 3.793773-2.587298 3.200996-2.587298H2.468742L2.887173-4.247073C2.942964-4.463263 2.949938-4.484184 3.242839-4.484184H4.379577C5.293151-4.484184 5.523288-4.29589 5.523288-3.675218C5.523288-3.493898 5.495392-3.284682 5.495392-3.249813C5.495392-3.194022 5.516314-3.131258 5.613948-3.131258C5.718555-3.131258 5.725529-3.194022 5.739477-3.312578L5.865006-4.526027C5.885928-4.735243 5.837111-4.735243 5.662765-4.735243H1.827148C1.687671-4.735243 1.603985-4.735243 1.603985-4.581818C1.603985-4.484184 1.680697-4.484184 1.834122-4.484184C1.945704-4.484184 1.973599-4.484184 2.099128-4.470237C2.238605-4.456289 2.252553-4.442341 2.252553-4.372603C2.252553-4.323786 2.231631-4.254047 2.224658-4.219178L1.311083-.571856C1.241345-.299875 1.234371-.251059 .690411-.251059C.564882-.251059 .481196-.251059 .481196-.097634C.481196 0 .564882 0 .690411 0H4.630635C4.804981 0 4.811955 0 4.867746-.125529L5.523288-1.610959Z" />
<path id="g5-71" d="M5.878954-4.811955C5.878954-4.846824 5.858032-4.902615 5.788294-4.902615C5.739477-4.902615 5.725529-4.888667 5.662765-4.818929L5.153674-4.281943C5.090909-4.365629 4.700374-4.902615 3.84259-4.902615C2.147945-4.902615 .488169-3.403238 .488169-1.827148C.488169-.746202 1.311083 .139477 2.650062 .139477C3.263761 .139477 3.912329-.020922 4.274969-.411457C4.344707-.258032 4.533001-.006974 4.616687-.006974C4.679452-.006974 4.6934-.034869 4.728269-.18132L4.860772-.718306C4.895641-.843836 4.993275-1.262267 5.014197-1.345953C5.097883-1.659776 5.104857-1.66675 5.516314-1.673724C5.565131-1.673724 5.669738-1.673724 5.669738-1.820174C5.669738-1.889913 5.620922-1.924782 5.565131-1.924782C5.334994-1.924782 5.042092-1.896887 4.798007-1.896887C4.623661-1.896887 4.393524-1.896887 4.219178-1.903861S3.84259-1.924782 3.668244-1.924782C3.619427-1.924782 3.514819-1.924782 3.514819-1.771357C3.514819-1.673724 3.591532-1.673724 3.765878-1.673724C3.898381-1.673724 4.037858-1.673724 4.170361-1.659776C4.393524-1.638854 4.400498-1.610959 4.400498-1.527273C4.400498-1.499377 4.400498-1.48543 4.351681-1.30411C4.302864-1.108842 4.226152-.795019 4.198257-.72528C3.996015-.299875 3.347447-.111582 2.803487-.111582C2.106102-.111582 1.192528-.446326 1.192528-1.624907C1.192528-2.371108 1.54122-3.305604 2.057285-3.828643C2.775592-4.539975 3.521793-4.651557 3.912329-4.651557C4.721295-4.651557 5.195517-4.065753 5.195517-3.284682C5.195517-3.089415 5.174595-3.040598 5.174595-2.998755C5.174595-2.908095 5.265255-2.908095 5.300125-2.908095C5.411706-2.908095 5.411706-2.929016 5.446575-3.061519L5.878954-4.811955Z" />
<path id="g5-108" d="M1.966625-4.630635C1.973599-4.644583 1.994521-4.735243 1.994521-4.742217C1.994521-4.777086 1.966625-4.839851 1.882939-4.839851C1.743462-4.839851 1.164633-4.78406 .990286-4.770112C.941469-4.763138 .843836-4.756164 .843836-4.609714C.843836-4.51208 .941469-4.51208 1.018182-4.51208C1.352927-4.51208 1.352927-4.463263 1.352927-4.407472C1.352927-4.358655 1.338979-4.316812 1.325031-4.254047L.460274-.808966C.439352-.739228 .432379-.662516 .432379-.592777C.432379-.146451 .829888 .069738 1.164633 .069738C1.332005 .069738 1.54122 .013948 1.72254-.299875C1.868991-.557908 1.966625-.969365 1.966625-.99726C1.966625-1.08792 1.875965-1.08792 1.855044-1.08792C1.75741-1.08792 1.743462-1.046077 1.715567-.920548C1.624907-.571856 1.492403-.125529 1.192528-.125529C1.004234-.125529 .955417-.299875 .955417-.467248C.955417-.54396 .976339-.676463 .99726-.753176L1.966625-4.630635Z" />
<path id="g5-116" d="M1.715567-2.75467H2.426899C2.559402-2.75467 2.650062-2.75467 2.650062-2.908095C2.650062-3.005729 2.559402-3.005729 2.440847-3.005729H1.778331L2.036364-4.037858C2.043337-4.072727 2.057285-4.107597 2.057285-4.135492C2.057285-4.261021 1.959651-4.358655 1.820174-4.358655C1.645828-4.358655 1.54122-4.2401 1.492403-4.05878C1.443587-3.884433 1.534247-4.219178 1.227397-3.005729H.516065C.383562-3.005729 .292902-3.005729 .292902-2.852304C.292902-2.75467 .376588-2.75467 .502117-2.75467H1.164633L.753176-1.108842C.711333-.934496 .648568-.683437 .648568-.592777C.648568-.18132 .99726 .069738 1.39477 .069738C2.168867 .069738 2.608219-.9066 2.608219-.99726S2.517559-1.08792 2.496638-1.08792C2.412951-1.08792 2.405978-1.073973 2.350187-.955417C2.154919-.516065 1.799253-.125529 1.415691-.125529C1.26924-.125529 1.171606-.216189 1.171606-.467248C1.171606-.536986 1.199502-.683437 1.21345-.753176L1.715567-2.75467Z" />
<path id="g4-13" d="M.408468-2.530511C.797011-3.676214 1.882939-3.686177 1.992528-3.686177C3.496887-3.686177 3.606476-1.942715 3.606476-1.155666C3.606476-.547945 3.556663-.37858 3.486924-.179328C3.267746 .547945 2.968867 1.703611 2.968867 1.96264C2.968867 2.072229 3.01868 2.141968 3.098381 2.141968C3.227895 2.141968 3.307597 1.92279 3.417186 1.544209C3.646326 .707347 3.745953 .139477 3.785803-.169365C3.805729-.298879 3.825654-.428394 3.865504-.557908C4.184309-1.544209 4.821918-3.028643 5.220423-3.815691C5.290162-3.935243 5.409714-4.154421 5.409714-4.194271C5.409714-4.293898 5.310087-4.293898 5.290162-4.293898C5.260274-4.293898 5.200498-4.293898 5.17061-4.224159C4.652553-3.277709 4.254047-2.281445 3.855542-1.275218C3.845579-1.58406 3.835616-2.34122 3.447073-3.307597C3.20797-3.915318 2.809465-4.403487 2.122042-4.403487C.876712-4.403487 .179328-2.889166 .179328-2.580324C.179328-2.480697 .268991-2.480697 .368618-2.480697L.408468-2.530511Z" />
<path id="g4-14" d="M2.630137-4.353674C1.384807-4.054795 .418431-2.759651 .418431-1.554172C.418431-.597758 1.05604 .119552 1.992528 .119552C3.158157 .119552 3.985056-1.444583 3.985056-2.819427C3.985056-3.726027 3.58655-4.224159 3.247821-4.672478C2.889166-5.120797 2.30137-5.867995 2.30137-6.306351C2.30137-6.525529 2.500623-6.764633 2.849315-6.764633C3.148194-6.764633 3.347447-6.635118 3.556663-6.495641C3.755915-6.37609 3.955168-6.246575 4.104608-6.246575C4.353674-6.246575 4.503113-6.485679 4.503113-6.645081C4.503113-6.864259 4.343711-6.894147 3.985056-6.973848C3.466999-7.083437 3.327522-7.083437 3.16812-7.083437C2.391034-7.083437 2.032379-6.655044 2.032379-6.057285C2.032379-5.519303 2.321295-4.961395 2.630137-4.353674ZM2.749689-4.134496C2.998755-3.676214 3.297634-3.138232 3.297634-2.420922C3.297634-1.763387 2.919054-.099626 1.992528-.099626C1.444583-.099626 1.036115-.518057 1.036115-1.275218C1.036115-1.902864 1.404732-3.775841 2.749689-4.134496Z" />
<path id="g4-21" d="M3.556663-2.909091C3.965131-1.863014 4.443337-.33873 4.60274-.109589C4.762142 .109589 4.861768 .109589 5.13076 .109589H5.349938C5.449564 .099626 5.459527 .039851 5.459527 .009963S5.439601-.039851 5.409714-.079701C5.310087-.18929 5.250311-.33873 5.180573-.537983L3.148194-6.206725C2.938979-6.784558 2.400996-6.914072 1.932752-6.914072C1.882939-6.914072 1.753425-6.914072 1.753425-6.804483C1.753425-6.724782 1.833126-6.704857 1.843088-6.704857C2.171856-6.645081 2.241594-6.585305 2.49066-5.907846L3.457036-3.198007L.707347-.468244C.587796-.348692 .52802-.288917 .52802-.159402C.52802 .009963 .667497 .129514 .826899 .129514S1.075965 .019925 1.155666-.079701L3.556663-2.909091Z" />
<path id="g4-58" d="M1.912827-.52802C1.912827-.816936 1.673724-1.05604 1.384807-1.05604S.856787-.816936 .856787-.52802S1.09589 0 1.384807 0S1.912827-.239103 1.912827-.52802Z" />
<path id="g4-65" d="M1.783313-1.145704C1.384807-.478207 .996264-.33873 .557908-.308842C.438356-.298879 .348692-.298879 .348692-.109589C.348692-.049813 .398506 0 .478207 0C.747198 0 1.05604-.029888 1.334994-.029888C1.663761-.029888 2.012453 0 2.331258 0C2.391034 0 2.520548 0 2.520548-.18929C2.520548-.298879 2.430884-.308842 2.361146-.308842C2.132005-.328767 1.892902-.408468 1.892902-.657534C1.892902-.777086 1.952677-.886675 2.032379-1.026152L2.789539-2.30137H5.290162C5.310087-2.092154 5.449564-.737235 5.449564-.637609C5.449564-.33873 4.931507-.308842 4.732254-.308842C4.592777-.308842 4.493151-.308842 4.493151-.109589C4.493151 0 4.612702 0 4.632628 0C5.041096 0 5.469489-.029888 5.877958-.029888C6.127024-.029888 6.75467 0 7.003736 0C7.063512 0 7.183064 0 7.183064-.199253C7.183064-.308842 7.083437-.308842 6.953923-.308842C6.336239-.308842 6.336239-.37858 6.306351-.667497L5.69863-6.894147C5.678705-7.0934 5.678705-7.13325 5.50934-7.13325C5.349938-7.13325 5.310087-7.063512 5.250311-6.963885L1.783313-1.145704ZM2.978829-2.610212L4.941469-5.897883L5.260274-2.610212H2.978829Z" />
<path id="g7-40" d="M3.297634 2.391034C3.297634 2.361146 3.297634 2.34122 3.128269 2.171856C1.882939 .916563 1.564134-.966376 1.564134-2.49066C1.564134-4.224159 1.942715-5.957659 3.16812-7.202989C3.297634-7.32254 3.297634-7.342466 3.297634-7.372354C3.297634-7.442092 3.257783-7.47198 3.198007-7.47198C3.098381-7.47198 2.201743-6.794521 1.613948-5.529265C1.105853-4.433375 .986301-3.327522 .986301-2.49066C.986301-1.713574 1.09589-.508095 1.643836 .617684C2.241594 1.843088 3.098381 2.49066 3.198007 2.49066C3.257783 2.49066 3.297634 2.460772 3.297634 2.391034Z" />
<path id="g7-41" d="M2.879203-2.49066C2.879203-3.267746 2.769614-4.473225 2.221669-5.599004C1.62391-6.824408 .767123-7.47198 .667497-7.47198C.607721-7.47198 .56787-7.43213 .56787-7.372354C.56787-7.342466 .56787-7.32254 .757161-7.143213C1.733499-6.156912 2.30137-4.572852 2.30137-2.49066C2.30137-.787049 1.932752 .966376 .697385 2.221669C.56787 2.34122 .56787 2.361146 .56787 2.391034C.56787 2.450809 .607721 2.49066 .667497 2.49066C.767123 2.49066 1.663761 1.8132 2.251557 .547945C2.759651-.547945 2.879203-1.653798 2.879203-2.49066Z" />
<path id="g7-61" d="M6.844334-3.257783C6.993773-3.257783 7.183064-3.257783 7.183064-3.457036S6.993773-3.656289 6.854296-3.656289H.886675C.747198-3.656289 .557908-3.656289 .557908-3.457036S.747198-3.257783 .896638-3.257783H6.844334ZM6.854296-1.325031C6.993773-1.325031 7.183064-1.325031 7.183064-1.524284S6.993773-1.723537 6.844334-1.723537H.896638C.747198-1.723537 .557908-1.723537 .557908-1.524284S.747198-1.325031 .886675-1.325031H6.854296Z" />
<path id="g7-94" d="M2.49066-6.914072L1.155666-5.559153L1.334994-5.379826L2.49066-6.396015L3.636364-5.379826L3.815691-5.559153L2.49066-6.914072Z" />
</defs>
<g id="page54">
<use x="117.629188" y="-15.497472" xlink:href="#g7-94" />
<use x="115.000116" y="-12.979145" xlink:href="#g4-65" />
<use x="122.472115" y="-18.154166" xlink:href="#g5-71" />
<use x="128.674838" y="-18.154166" xlink:href="#g5-65" />
<use x="134.666299" y="-18.154166" xlink:href="#g5-69" />
<use x="140.89851" y="-18.154166" xlink:href="#g8-40" />
<use x="144.011854" y="-18.154166" xlink:href="#g5-13" />
<use x="148.625639" y="-18.154166" xlink:href="#g5-59" />
<use x="150.99178" y="-18.154166" xlink:href="#g5-21" />
<use x="155.717146" y="-18.154166" xlink:href="#g8-41" />
<use x="122.472115" y="-10.527295" xlink:href="#g5-116" />
<use x="162.095876" y="-12.979145" xlink:href="#g7-61" />
<use x="175.83598" y="-25.432491" xlink:href="#g2-49" />
<use x="172.611956" y="-22.443714" xlink:href="#g9-88" />
<use x="173.483672" y="-.996264" xlink:href="#g5-108" />
<use x="176.043543" y="-.996264" xlink:href="#g8-61" />
<use x="182.159526" y="-.996264" xlink:href="#g8-48" />
<use x="187.002465" y="-12.979145" xlink:href="#g7-40" />
<use x="190.876838" y="-12.979145" xlink:href="#g4-13" />
<use x="196.58827" y="-12.979145" xlink:href="#g4-21" />
<use x="202.399835" y="-12.979145" xlink:href="#g7-41" />
<use x="206.274209" y="-17.092641" xlink:href="#g5-108" />
<use x="209.332199" y="-12.979145" xlink:href="#g4-14" />
<use x="213.760042" y="-11.484764" xlink:href="#g5-116" />
<use x="216.769613" y="-11.484764" xlink:href="#g8-43" />
<use x="222.885596" y="-11.484764" xlink:href="#g5-108" />
<use x="225.943571" y="-12.979145" xlink:href="#g4-58" />
</g>
</g></svg>