<?xml version='1.0' encoding='utf-8'?>
<svg xmlns="http://www.w3.org/2000/svg" xmlns:xlink="http://www.w3.org/1999/xlink" width="760" height="72" viewBox="0 0 760 72" role="img" aria-labelledby="title desc"><title id="title">32. Entropy Regularization</title><desc id="desc">\mathcal{H}(\pi(\cdot|s))=-\sum_a\pi(a|s)\log\pi(a|s).</desc><rect width="760" height="72" rx="10" fill="#F5F1E8" /><rect x="0" y="12" width="3" height="48" rx="1.5" fill="#AF824A" /><g fill="#292332" transform="translate(54.0875,57.7022) scale(1.90000)"><defs>
<path id="g5-97" d="M2.942964-2.66401C2.796513-2.894147 2.559402-3.075467 2.224658-3.075467C1.332005-3.075467 .425405-2.092154 .425405-1.08792C.425405-.411457 .878705 .069738 1.478456 .069738C1.855044 .069738 2.189788-.146451 2.468742-.418431C2.601245 0 3.005729 .069738 3.187049 .069738C3.438107 .069738 3.612453-.083686 3.737983-.299875C3.891407-.571856 3.982067-.969365 3.982067-.99726C3.982067-1.08792 3.891407-1.08792 3.870486-1.08792C3.772852-1.08792 3.765878-1.060025 3.717061-.871731C3.633375-.536986 3.500872-.125529 3.20797-.125529C3.02665-.125529 2.977833-.278954 2.977833-.467248C2.977833-.585803 3.033624-.836862 3.082441-1.018182C3.131258-1.206476 3.200996-1.492403 3.235866-1.645828L3.375342-2.175841C3.417186-2.357161 3.500872-2.684932 3.500872-2.719801C3.500872-2.873225 3.375342-2.942964 3.263761-2.942964C3.145205-2.942964 2.984807-2.859278 2.942964-2.66401ZM2.496638-.871731C2.447821-.676463 2.294396-.536986 2.140971-.404483C2.078207-.348692 1.799253-.125529 1.499377-.125529C1.241345-.125529 .990286-.306849 .990286-.801993C.990286-1.171606 1.192528-1.93873 1.352927-2.217684C1.673724-2.775592 2.02939-2.880199 2.224658-2.880199C2.712827-2.880199 2.84533-2.350187 2.84533-2.273474C2.84533-2.245579 2.831382-2.196762 2.824408-2.175841L2.496638-.871731Z" />
<path id="g9-88" d="M12.612702 13.947696L13.818182 10.759651H13.569116C13.180573 11.795766 12.124533 12.473225 10.978829 12.772105C10.769614 12.821918 9.793275 13.080946 7.880448 13.080946H1.872976L6.94396 7.13325C7.013699 7.053549 7.033624 7.023661 7.033624 6.973848C7.033624 6.953923 7.033624 6.924035 6.963885 6.824408L2.321295 .478207H7.780822C9.115816 .478207 10.022416 .617684 10.11208 .637609C10.650062 .71731 11.516812 .886675 12.303861 1.384807C12.552927 1.544209 13.230386 1.992528 13.569116 2.799502H13.818182L12.612702 0H.836862C.607721 0 .597758 .009963 .56787 .069738C.557908 .099626 .557908 .288917 .557908 .398506L5.828144 7.611457L.667497 13.65878C.56787 13.778331 .56787 13.828144 .56787 13.838107C.56787 13.947696 .657534 13.947696 .836862 13.947696H12.612702Z" />
<path id="g4-25" d="M2.6401-3.716065H3.765878C3.437111-2.241594 3.347447-1.8132 3.347447-1.145704C3.347447-.996264 3.347447-.727273 3.427148-.388543C3.526775 .049813 3.636364 .109589 3.785803 .109589C3.985056 .109589 4.194271-.069738 4.194271-.268991C4.194271-.328767 4.194271-.348692 4.134496-.488169C3.845579-1.205479 3.845579-1.853051 3.845579-2.132005C3.845579-2.660025 3.915318-3.198007 4.024907-3.716065H5.160648C5.290162-3.716065 5.648817-3.716065 5.648817-4.054795C5.648817-4.293898 5.439601-4.293898 5.250311-4.293898H1.912827C1.693649-4.293898 1.315068-4.293898 .876712-3.825654C.52802-3.437111 .268991-2.978829 .268991-2.929016C.268991-2.919054 .268991-2.82939 .388543-2.82939C.468244-2.82939 .488169-2.86924 .547945-2.948941C1.036115-3.716065 1.613948-3.716065 1.8132-3.716065H2.381071C2.062267-2.510585 1.524284-1.305106 1.105853-.398506C1.026152-.249066 1.026152-.229141 1.026152-.159402C1.026152 .029888 1.185554 .109589 1.315068 .109589C1.613948 .109589 1.693649-.169365 1.8132-.537983C1.952677-.996264 1.952677-1.016189 2.082192-1.514321L2.6401-3.716065Z" />
<path id="g4-58" d="M1.912827-.52802C1.912827-.816936 1.673724-1.05604 1.384807-1.05604S.856787-.816936 .856787-.52802S1.09589 0 1.384807 0S1.912827-.239103 1.912827-.52802Z" />
<path id="g4-97" d="M3.716065-3.765878C3.536737-4.134496 3.247821-4.403487 2.799502-4.403487C1.633873-4.403487 .398506-2.938979 .398506-1.484433C.398506-.547945 .946451 .109589 1.723537 .109589C1.92279 .109589 2.420922 .069738 3.01868-.637609C3.098381-.219178 3.447073 .109589 3.92528 .109589C4.273973 .109589 4.503113-.119552 4.662516-.438356C4.83188-.797011 4.961395-1.404732 4.961395-1.424658C4.961395-1.524284 4.871731-1.524284 4.841843-1.524284C4.742217-1.524284 4.732254-1.484433 4.702366-1.344956C4.533001-.697385 4.353674-.109589 3.945205-.109589C3.676214-.109589 3.646326-.368618 3.646326-.56787C3.646326-.787049 3.666252-.86675 3.775841-1.305106C3.88543-1.723537 3.905355-1.823163 3.995019-2.201743L4.353674-3.596513C4.423412-3.875467 4.423412-3.895392 4.423412-3.935243C4.423412-4.104608 4.303861-4.204234 4.134496-4.204234C3.895392-4.204234 3.745953-3.985056 3.716065-3.765878ZM3.068493-1.185554C3.01868-1.006227 3.01868-.986301 2.86924-.816936C2.430884-.268991 2.022416-.109589 1.743462-.109589C1.24533-.109589 1.105853-.657534 1.105853-1.046077C1.105853-1.544209 1.424658-2.769614 1.653798-3.227895C1.96264-3.815691 2.410959-4.184309 2.809465-4.184309C3.457036-4.184309 3.596513-3.367372 3.596513-3.307597S3.576588-3.188045 3.566625-3.138232L3.068493-1.185554Z" />
<path id="g4-115" d="M3.895392-3.726027C3.616438-3.716065 3.417186-3.496887 3.417186-3.277709C3.417186-3.138232 3.506849-2.988792 3.726027-2.988792S4.184309-3.158157 4.184309-3.5467C4.184309-3.995019 3.755915-4.403487 2.998755-4.403487C1.683686-4.403487 1.315068-3.387298 1.315068-2.948941C1.315068-2.171856 2.052304-2.022416 2.34122-1.96264C2.859278-1.863014 3.377335-1.753425 3.377335-1.205479C3.377335-.946451 3.148194-.109589 1.952677-.109589C1.8132-.109589 1.046077-.109589 .816936-.637609C1.195517-.587796 1.444583-.886675 1.444583-1.165629C1.444583-1.39477 1.285181-1.514321 1.075965-1.514321C.816936-1.514321 .518057-1.305106 .518057-.856787C.518057-.288917 1.085928 .109589 1.942715 .109589C3.556663 .109589 3.945205-1.09589 3.945205-1.544209C3.945205-1.902864 3.755915-2.15193 3.636364-2.271482C3.367372-2.550436 3.078456-2.600249 2.6401-2.689913C2.281445-2.769614 1.882939-2.839352 1.882939-3.287671C1.882939-3.576588 2.122042-4.184309 2.998755-4.184309C3.247821-4.184309 3.745953-4.11457 3.895392-3.726027Z" />
<path id="g7-40" d="M3.297634 2.391034C3.297634 2.361146 3.297634 2.34122 3.128269 2.171856C1.882939 .916563 1.564134-.966376 1.564134-2.49066C1.564134-4.224159 1.942715-5.957659 3.16812-7.202989C3.297634-7.32254 3.297634-7.342466 3.297634-7.372354C3.297634-7.442092 3.257783-7.47198 3.198007-7.47198C3.098381-7.47198 2.201743-6.794521 1.613948-5.529265C1.105853-4.433375 .986301-3.327522 .986301-2.49066C.986301-1.713574 1.09589-.508095 1.643836 .617684C2.241594 1.843088 3.098381 2.49066 3.198007 2.49066C3.257783 2.49066 3.297634 2.460772 3.297634 2.391034Z" />
<path id="g7-41" d="M2.879203-2.49066C2.879203-3.267746 2.769614-4.473225 2.221669-5.599004C1.62391-6.824408 .767123-7.47198 .667497-7.47198C.607721-7.47198 .56787-7.43213 .56787-7.372354C.56787-7.342466 .56787-7.32254 .757161-7.143213C1.733499-6.156912 2.30137-4.572852 2.30137-2.49066C2.30137-.787049 1.932752 .966376 .697385 2.221669C.56787 2.34122 .56787 2.361146 .56787 2.391034C.56787 2.450809 .607721 2.49066 .667497 2.49066C.767123 2.49066 1.663761 1.8132 2.251557 .547945C2.759651-.547945 2.879203-1.653798 2.879203-2.49066Z" />
<path id="g7-61" d="M6.844334-3.257783C6.993773-3.257783 7.183064-3.257783 7.183064-3.457036S6.993773-3.656289 6.854296-3.656289H.886675C.747198-3.656289 .557908-3.656289 .557908-3.457036S.747198-3.257783 .896638-3.257783H6.844334ZM6.854296-1.325031C6.993773-1.325031 7.183064-1.325031 7.183064-1.524284S6.993773-1.723537 6.844334-1.723537H.896638C.747198-1.723537 .557908-1.723537 .557908-1.524284S.747198-1.325031 .886675-1.325031H6.854296Z" />
<path id="g7-103" d="M2.211706-1.713574C1.344956-1.713574 1.344956-2.709838 1.344956-2.938979C1.344956-3.20797 1.354919-3.526775 1.504359-3.775841C1.58406-3.895392 1.8132-4.174346 2.211706-4.174346C3.078456-4.174346 3.078456-3.178082 3.078456-2.948941C3.078456-2.67995 3.068493-2.361146 2.919054-2.11208C2.839352-1.992528 2.610212-1.713574 2.211706-1.713574ZM1.05604-1.325031C1.05604-1.364882 1.05604-1.594022 1.225405-1.793275C1.613948-1.514321 2.022416-1.484433 2.211706-1.484433C3.138232-1.484433 3.825654-2.171856 3.825654-2.938979C3.825654-3.307597 3.666252-3.676214 3.417186-3.905355C3.775841-4.244085 4.134496-4.293898 4.313823-4.293898C4.333748-4.293898 4.383562-4.293898 4.41345-4.283935C4.303861-4.244085 4.254047-4.134496 4.254047-4.014944C4.254047-3.845579 4.383562-3.726027 4.542964-3.726027C4.64259-3.726027 4.83188-3.795766 4.83188-4.024907C4.83188-4.194271 4.712329-4.513076 4.323786-4.513076C4.124533-4.513076 3.686177-4.4533 3.267746-4.044832C2.849315-4.373599 2.430884-4.403487 2.211706-4.403487C1.285181-4.403487 .597758-3.716065 .597758-2.948941C.597758-2.510585 .816936-2.132005 1.066002-1.92279C.936488-1.77335 .757161-1.444583 .757161-1.09589C.757161-.787049 .886675-.408468 1.195517-.209215C.597758-.039851 .278954 .388543 .278954 .787049C.278954 1.504359 1.265255 2.052304 2.480697 2.052304C3.656289 2.052304 4.692403 1.544209 4.692403 .767123C4.692403 .418431 4.552927-.089664 4.044832-.368618C3.516812-.647572 2.938979-.647572 2.331258-.647572C2.082192-.647572 1.653798-.647572 1.58406-.657534C1.265255-.697385 1.05604-1.006227 1.05604-1.325031ZM2.49066 1.823163C1.484433 1.823163 .797011 1.315068 .797011 .787049C.797011 .328767 1.175592-.039851 1.613948-.069738H2.201743C3.058531-.069738 4.174346-.069738 4.174346 .787049C4.174346 1.325031 3.466999 1.823163 2.49066 1.823163Z" />
<path id="g7-108" d="M1.763387-6.914072L.328767-6.804483V-6.495641C1.026152-6.495641 1.105853-6.425903 1.105853-5.937733V-.757161C1.105853-.308842 .996264-.308842 .328767-.308842V0C.657534-.009963 1.185554-.029888 1.43462-.029888S2.171856-.009963 2.540473 0V-.308842C1.872976-.308842 1.763387-.308842 1.763387-.757161V-6.914072Z" />
<path id="g7-111" d="M4.692403-2.132005C4.692403-3.407223 3.696139-4.463263 2.49066-4.463263C1.24533-4.463263 .278954-3.377335 .278954-2.132005C.278954-.846824 1.315068 .109589 2.480697 .109589C3.686177 .109589 4.692403-.86675 4.692403-2.132005ZM2.49066-.139477C2.062267-.139477 1.62391-.348692 1.354919-.806974C1.105853-1.24533 1.105853-1.853051 1.105853-2.211706C1.105853-2.600249 1.105853-3.138232 1.344956-3.576588C1.613948-4.034869 2.082192-4.244085 2.480697-4.244085C2.919054-4.244085 3.347447-4.024907 3.606476-3.596513S3.865504-2.590286 3.865504-2.211706C3.865504-1.853051 3.865504-1.315068 3.646326-.876712C3.427148-.428394 2.988792-.139477 2.49066-.139477Z" />
<path id="g1-0" d="M6.56538-2.291407C6.734745-2.291407 6.914072-2.291407 6.914072-2.49066S6.734745-2.689913 6.56538-2.689913H1.175592C1.006227-2.689913 .826899-2.689913 .826899-2.49066S1.006227-2.291407 1.175592-2.291407H6.56538Z" />
<path id="g1-1" d="M1.912827-2.49066C1.912827-2.779577 1.673724-3.01868 1.384807-3.01868S.856787-2.779577 .856787-2.49066S1.09589-1.96264 1.384807-1.96264S1.912827-2.201743 1.912827-2.49066Z" />
<path id="g1-72" d="M3.297634-3.337484C3.427148-3.805729 3.556663-4.313823 3.656289-4.79203C3.775841-5.459527 3.845579-6.127024 3.845579-6.246575C3.845579-6.804483 3.297634-6.804483 3.178082-6.804483C2.420922-6.804483 1.743462-6.525529 1.275218-6.206725C.468244-5.65878 .209215-4.991283 .209215-4.941469C.209215-4.871731 .278954-4.871731 .308842-4.871731C.388543-4.871731 .856787-4.991283 1.066002-5.369863C1.334994-5.877958 1.62391-6.256538 2.520548-6.256538C2.929016-6.256538 2.998755-5.977584 2.998755-5.818182C2.998755-5.808219 2.968867-5.339975 2.849315-4.652553C2.799502-4.373599 2.769614-4.194271 2.560399-3.337484H2.201743C1.92279-3.327522 1.464508-3.008717 1.464508-2.859278C1.464508-2.799502 1.474471-2.789539 1.693649-2.789539H2.410959C2.201743-2.092154 1.92279-1.135741 1.464508 .079701C1.374844 .308842 1.374844 .328767 1.374844 .33873C1.374844 .408468 1.454545 .408468 1.474471 .408468C1.613948 .408468 1.92279 .278954 2.122042 .079701C2.171856 .019925 2.191781 0 2.231631-.099626C2.580324-.976339 2.879203-1.872976 3.138232-2.789539H5.379826C5.489415-2.789539 5.678705-2.789539 5.838107-2.889166C5.728518-2.470735 5.32005-.846824 5.32005-.059776C5.32005 .229141 5.489415 .488169 5.917808 .488169C7.242839 .488169 7.980075-.33873 7.980075-.657534C7.980075-.71731 7.930262-.737235 7.880448-.737235C7.800747-.737235 7.272727-.597758 7.123288-.209215C7.083437-.129514 7.073474-.119552 6.884184-.089664C6.774595-.069738 6.585305-.059776 6.575342-.059776C6.396015-.059776 6.166874-.179328 6.166874-.488169C6.166874-.607721 6.236613-1.155666 6.266501-1.374844C6.435866-2.480697 6.924035-4.353674 7.780822-6.625156C7.81071-6.694894 7.81071-6.714819 7.81071-6.734745C7.81071-6.804483 7.750934-6.804483 7.711083-6.804483C7.561644-6.804483 7.272727-6.665006 7.083437-6.495641C7.073474-6.475716 7.013699-6.425903 6.973848-6.336239C6.575342-5.3599 6.266501-4.353674 5.967621-3.337484H3.297634Z" />
<path id="g1-106" d="M1.58406-7.113325C1.58406-7.292653 1.58406-7.47198 1.384807-7.47198S1.185554-7.292653 1.185554-7.113325V2.132005C1.185554 2.311333 1.185554 2.49066 1.384807 2.49066S1.58406 2.311333 1.58406 2.132005V-7.113325Z" />
</defs>
<g id="page62">
<use x="96.392556" y="-12.453361" xlink:href="#g1-72" />
<use x="104.902349" y="-12.453361" xlink:href="#g7-40" />
<use x="108.776722" y="-12.453361" xlink:href="#g4-25" />
<use x="114.813139" y="-12.453361" xlink:href="#g7-40" />
<use x="118.687513" y="-12.453361" xlink:href="#g1-1" />
<use x="121.454922" y="-12.453361" xlink:href="#g1-106" />
<use x="124.22233" y="-12.453361" xlink:href="#g4-115" />
<use x="128.892318" y="-12.453361" xlink:href="#g7-41" />
<use x="132.766691" y="-12.453361" xlink:href="#g7-41" />
<use x="139.408398" y="-12.453361" xlink:href="#g7-61" />
<use x="149.924478" y="-12.453361" xlink:href="#g1-0" />
<use x="159.333625" y="-21.91793" xlink:href="#g9-88" />
<use x="164.368166" y="-.996264" xlink:href="#g5-97" />
<use x="175.384533" y="-12.453361" xlink:href="#g4-25" />
<use x="181.42095" y="-12.453361" xlink:href="#g7-40" />
<use x="185.295324" y="-12.453361" xlink:href="#g4-97" />
<use x="190.561477" y="-12.453361" xlink:href="#g1-106" />
<use x="193.328886" y="-12.453361" xlink:href="#g4-115" />
<use x="197.998873" y="-12.453361" xlink:href="#g7-41" />
<use x="203.533647" y="-12.453361" xlink:href="#g7-108" />
<use x="206.301055" y="-12.453361" xlink:href="#g7-111" />
<use x="211.282394" y="-12.453361" xlink:href="#g7-103" />
<use x="218.062477" y="-12.453361" xlink:href="#g4-25" />
<use x="224.098893" y="-12.453361" xlink:href="#g7-40" />
<use x="227.973267" y="-12.453361" xlink:href="#g4-97" />
<use x="233.239421" y="-12.453361" xlink:href="#g1-106" />
<use x="236.00683" y="-12.453361" xlink:href="#g4-115" />
<use x="240.676817" y="-12.453361" xlink:href="#g7-41" />
<use x="244.551191" y="-12.453361" xlink:href="#g4-58" />
</g>
</g></svg>